<svg xmlns="http://www.w3.org/2000/svg" width="50pt" height="50pt" viewBox="0 0 50 50"><path d="M23.5 0C11.094 0 1 10.094 1 22.5S11.094 45 23.5 45c2.594 0 4.438-.297 6.059-.559C30.977 44.215 32.316 44 34 44c8.164 0 13.2 5.602 13.246 5.66.2.223.477.34.754.34.188 0 .375-.05.54-.16a.996.996 0 00.37-1.246c-.11-.25-2.824-6.11-13.719-8.63l-.296-.081c-2.692-.668-4.864-1.754-6.458-3.227-2.058-1.902-2.449-3.82-2.453-3.832A.999.999 0 0024 33c0 .102.008 2.09.355 3.969-.3.02-.582.031-.855.031C15.504 37 9 30.496 9 22.5S15.504 8 23.5 8 38 14.504 38 22.5c0 .598-.04 1.2-.113 1.8C36 24 34.125 24 34 24c-.582 0-1 .5-1 1.02a1 1 0 00.996.98c.024 0 2.102.02 3.965 1.219 3.086 1.98 3.824 4.976 3.832 5.004.094.41.434.718.855.77.418.042.825-.169 1.016-.548A22.262 22.262 0 0046 22.5C46 10.094 35.906 0 23.5 0zm15.137 32.004a.555.555 0 00-.543.273c-.211.371-.055 1.106.37 1.746.434.649.802.977 1.095.977.27 0 .535-.336.41-1.145-.074-.484-.356-1.539-1.074-1.796a.826.826 0 00-.262-.055zM35.367 35c-.449 0-.824.117-1.05.34-.594.578-.329 1.594.578 2.222.394.274.96.438 1.52.438.565 0 1.038-.168 1.331-.477.524-.558.223-1.351-.77-2.02A2.938 2.938 0 0035.368 35zm0 0" fill="#e67e22"/></svg>