<svg xmlns="http://www.w3.org/2000/svg" width="48" height="48"><linearGradient id="a" x1="13.999" x2="34.001" y1="6.677" y2="41.323" gradientUnits="userSpaceOnUse"><stop offset="0" stop-color="#ffda1c"/><stop offset="1" stop-color="#feb705"/></linearGradient><path fill="url(#a)" d="M44 24c0 11.044-8.956 20-20 20S4 35.044 4 24 12.956 4 24 4s20 8.956 20 20z"/><path d="M27 10h-1c-1.103 0-2 .897-2 2 0-1.103-.897-2-2-2h-1c-1.103 0-2 .897-2 2v1h-1c-1.103 0-2 .897-2 2v18c0 1.103.897 2 2 2h1v1c0 1.103.897 2 2 2h1c1.103 0 2-.897 2-2v-1 1c0 1.103.897 2 2 2h1c1.103 0 2-.897 2-2v-1.391c1.116-.289 2.056-.74 2.802-1.344C33.26 32.083 34 30.352 34 28.121c0-1.341-.366-2.504-1.086-3.457a4.984 4.984 0 00-1.104-1.081c.309-.282.583-.601.821-.955.608-.914.915-1.972.915-3.147 0-2.119-.763-3.764-2.269-4.887-.626-.467-1.376-.827-2.277-1.09V12c0-1.103-.897-2-2-2zm-5 8h3.199c1.178 0 1.678.247 1.871.394.259.197.391.588.391 1.161 0 .527 0 1.409-2.115 1.445H22v-3zm0 8h4c1.322.019 2 .824 2 2.391C28 29.982 25.932 30 25.844 30H22v-4z" opacity=".05"/><path d="M27 10.5h-1c-.827 0-1.5.673-1.5 1.5v1.5h-1V12c0-.827-.673-1.5-1.5-1.5h-1c-.827 0-1.5.673-1.5 1.5v1.5H18c-.827 0-1.5.673-1.5 1.5v18c0 .827.673 1.5 1.5 1.5h1.5V36c0 .827.673 1.5 1.5 1.5h1c.827 0 1.5-.673 1.5-1.5v-1.5h1V36c0 .827.673 1.5 1.5 1.5h1c.827 0 1.5-.673 1.5-1.5v-1.786c1.213-.264 2.216-.713 2.987-1.338 1.336-1.083 2.013-2.683 2.013-4.755 0-1.23-.331-2.291-.985-3.156a4.52 4.52 0 00-1.58-1.329 4.712 4.712 0 001.281-1.287c.552-.829.831-1.794.831-2.868 0-1.953-.696-3.462-2.068-4.487-.657-.491-1.471-.855-2.478-1.109V12A1.503 1.503 0 0027 10.5zm-5.5 7h3.699c1.01 0 1.742.167 2.174.496.395.301.588.811.588 1.559 0 .885-.296 1.906-2.606 1.945H21.5v-4zm0 8H26c1.61.023 2.5 1.05 2.5 2.891 0 2.085-2.548 2.109-2.656 2.109H21.5v-5z" opacity=".07"/><path fill="#fff" d="M21 11h1a1 1 0 011 1v3a1 1 0 01-1 1h-1a1 1 0 01-1-1v-3a1 1 0 011-1zm5 0h1a1 1 0 011 1v3a1 1 0 01-1 1h-1a1 1 0 01-1-1v-3a1 1 0 011-1zm-5 21h1a1 1 0 011 1v3a1 1 0 01-1 1h-1a1 1 0 01-1-1v-3a1 1 0 011-1zm5 0h1a1 1 0 011 1v3a1 1 0 01-1 1h-1a1 1 0 01-1-1v-3a1 1 0 011-1zm-9 1V15a1 1 0 011-1h7.199c2.41 0 4.234.465 5.48 1.395s1.867 2.293 1.867 4.086c0 .98-.25 1.844-.746 2.59-.5.746-1.195 1.293-2.086 1.641 1.016.258 1.816.773 2.402 1.555.587.776.884 1.725.884 2.854 0 1.922-.609 3.379-1.828 4.367S28.219 33.98 25.965 34H18a1 1 0 01-1-1zm4-11h4.363c2.063-.035 3.098-.824 3.098-2.445 0-.906-.262-1.559-.785-1.957S26.328 17 25.199 17H21v5zm0 3v6h4.844c.961 0 3.156-.469 3.156-2.609S27.883 25.027 26 25h-5z"/></svg>