<svg xmlns="http://www.w3.org/2000/svg" width="24" height="24"><path d="M18.548 13.652h1.402l-.482-2.408z"/><path d="M22.005 4H1.995A1.995 1.995 0 000 5.995v13.01C0 20.107.893 21 1.995 21h20.01A1.995 1.995 0 0024 19.005V5.995A1.995 1.995 0 0022.005 4zM1.301 9.421h2.616c.669 0 .926.627.926.627l.57 2.891c-.777-2.5-4.112-3.518-4.112-3.518zm3.235 6.358l-1.358-5.16s1.43.724 2.311 2.699c.037.24.126.626.126.626l1.548-4.538h1.81L6.4 15.779H4.536zm5.793 0h-1.69l1.003-6.372h1.711l-1.024 6.372zm2.875.199c-1.212 0-1.838-.371-1.838-.371l.292-1.35s.645.372 1.623.372c.976 0 1.113-.41 1.113-.586 0-1.035-2.345-.76-2.345-2.773 0-1.113.918-1.993 2.697-1.993.783 0 1.584.313 1.584.313l-.274 1.408s-.626-.412-1.173-.412c-.841 0-1.134.275-1.134.645 0 .723 2.346.84 2.346 2.461.003 1.349-1.679 2.286-2.891 2.286zm7.174-.199l-.182-.91h-2.117l-.348.91h-1.679l2.775-6.372h1.779l1.31 6.372h-1.538z"/></svg>